<svg xmlns="http://www.w3.org/2000/svg" viewBox="257 865 61.605 50">
  <defs>
    <style>
      .cls-1 {
        fill: #0092ff;
      }

      .cls-1, .cls-2, .cls-4, .cls-5, .cls-6, .cls-9 {
        stroke: #2d346a;
        stroke-width: 2px;
      }

      .cls-2 {
        fill: #f7ce9a;
      }

      .cls-3 {
        fill: #2d346a;
      }

      .cls-4 {
        fill: #ffcc01;
      }

      .cls-5 {
        fill: #00ce77;
      }

      .cls-6 {
        fill: #fff;
        stroke-linejoin: round;
      }

      .cls-6, .cls-9 {
        stroke-linecap: round;
      }

      .cls-7 {
        fill: #ff5a31;
      }

      .cls-8 {
        fill: #c70808;
      }

      .cls-9 {
        fill: none;
      }
    </style>
  </defs>
  <g id="user_icon" data-name="user icon" transform="translate(258 866)">
    <path id="Path" class="cls-1" d="M72.25,85.045a4.681,4.681,0,0,1,4.661-4.7h7.211a4.681,4.681,0,0,1,4.661,4.7v4.7H72.24Z" transform="translate(-37.577 -41.741)"/>
    <ellipse id="Oval-13" class="cls-2" cx="6.359" cy="6.403" rx="6.359" ry="6.403" transform="translate(36.58 27.073)"/>
    <path id="Fill-3" class="cls-3" d="M86.554,74.478a2.676,2.676,0,0,0,2.535-1.737l-.973-.311a1.684,1.684,0,0,1-3.143,0L84,72.741a2.676,2.676,0,0,0,2.535,1.737" transform="translate(-43.615 -37.674)"/>
    <path id="Fill-4" class="cls-3" d="M84.3,66.29h1.377v.968H84.3Z" transform="translate(-43.769 -34.522)"/>
    <path id="Fill-5" class="cls-3" d="M91.58,66.29h1.377v.968H91.58Z" transform="translate(-47.507 -34.522)"/>
    <path id="Path-2" data-name="Path" class="cls-4" d="M18.25,85.045a4.681,4.681,0,0,1,4.661-4.7h7.211a4.681,4.681,0,0,1,4.661,4.7v4.7H18.24Z" transform="translate(-9.852 -41.741)"/>
    <ellipse id="Oval-13-2" data-name="Oval-13" class="cls-2" cx="6.359" cy="6.403" rx="6.359" ry="6.403" transform="translate(10.306 27.073)"/>
    <path id="Fill-3-2" data-name="Fill-3" class="cls-3" d="M32.554,74.478a2.676,2.676,0,0,0,2.535-1.737l-.973-.311a1.684,1.684,0,0,1-3.143,0L30,72.741a2.676,2.676,0,0,0,2.535,1.737" transform="translate(-15.89 -37.674)"/>
    <path id="Fill-4-2" data-name="Fill-4" class="cls-3" d="M30.3,66.29h1.377v.968H30.3Z" transform="translate(-16.044 -34.522)"/>
    <path id="Fill-5-2" data-name="Fill-5" class="cls-3" d="M37.58,66.29h1.377v.968H37.58Z" transform="translate(-19.781 -34.522)"/>
    <path id="Path-3" data-name="Path" class="cls-5" d="M42.75,82.982A5.352,5.352,0,0,1,48.1,77.63h8.272a5.352,5.352,0,0,1,5.352,5.352v5.352H42.75Z" transform="translate(-22.436 -40.344)"/>
    <circle id="Oval-13-3" data-name="Oval-13" class="cls-2" cx="7.299" cy="7.299" r="7.299" transform="translate(22.504 24.148)"/>
    <path id="Fill-3-3" data-name="Fill-3" class="cls-3" d="M59.2,70.966A3.08,3.08,0,0,0,62.12,68.99l-1.095-.36a1.946,1.946,0,0,1-3.61,0l-1.1.355a3.07,3.07,0,0,0,2.919,1.975" transform="translate(-29.398 -35.723)"/>
    <path id="Fill-4-3" data-name="Fill-4" class="cls-3" d="M56.57,61.64h1.581v1.1H56.57Z" transform="translate(-29.531 -32.134)"/>
    <path id="Fill-5-3" data-name="Fill-5" class="cls-3" d="M64.92,61.64H66.5v1.1H64.92Z" transform="translate(-33.819 -32.134)"/>
    <path id="Stroke-2" class="cls-6" d="M58.284,1h-16.1A3.338,3.338,0,0,0,38.85,4.333V14.551a3.338,3.338,0,0,0,3.338,3.338h5.226l2.919,4.686,2.71-4.686h5.24a3.338,3.338,0,0,0,3.338-3.338V4.333A3.338,3.338,0,0,0,58.284,1Z" transform="translate(-20.433 -1)"/>
    <path id="Path-4" data-name="Path" class="cls-7" d="M56.708,11.672a2.984,2.984,0,0,0-4.082-.18,2.919,2.919,0,0,0,0,4.15l3.406,3.406a.944.944,0,0,0,1.323,0l3.406-3.406a2.919,2.919,0,0,0,0-4.15A2.963,2.963,0,0,0,56.708,11.672Z" transform="translate(-27.062 -6.013)"/>
    <path id="Shape" class="cls-8" d="M56.249,13.68h0A1.319,1.319,0,0,0,54.93,15h0a.156.156,0,0,0,.156.151A.151.151,0,0,0,55.241,15h0a1.007,1.007,0,0,1,1.007-1h0a.161.161,0,0,0,.175-.161.156.156,0,0,0-.156-.156Z" transform="translate(-28.689 -7.51)"/>
    <path id="Stroke-7" class="cls-9" d="M3.126,99.63H1" transform="translate(-1 -51.64)"/>
    <path id="Stroke-8" class="cls-9" d="M121.256,99.63H119.13" transform="translate(-61.652 -51.64)"/>
    <path id="Stroke-9" class="cls-9" d="M9.75,99.63H60.84" transform="translate(-5.493 -51.64)"/>
  </g>
</svg>
