<svg xmlns="http://www.w3.org/2000/svg" viewBox="862.008 873.902 42.042 42.202">
  <defs>
    <style>
      .cls-1 {
        fill: #79e8fd;
        stroke: #2d346a;
        stroke-width: 2px;
      }
    </style>
  </defs>
  <g id="地球" transform="translate(862 873.909)">
    <g id="レイヤー_1" data-name="レイヤー 1" transform="translate(1 1.091)">
      <path id="パス_23" data-name="パス 23" class="cls-1" d="M13.281,24.065a32.952,32.952,0,0,1,2.294-12.089A32.822,32.822,0,0,1,7.343,9.45a20.029,20.029,0,0,0,0,29.224,32.822,32.822,0,0,1,8.231-2.526,32.913,32.913,0,0,1-2.294-12.082Z" transform="translate(-1.005 -4.049)"/>
      <path id="パス_24" data-name="パス 24" class="cls-1" d="M23.506,1.1a19.952,19.952,0,0,0-12.7,5.4,32.822,32.822,0,0,0,8.231,2.526A33.139,33.139,0,0,1,23.506,1.1Z" transform="translate(-4.472 -1.094)"/>
      <path id="パス_25" data-name="パス 25" class="cls-1" d="M10.81,53.286a19.952,19.952,0,0,0,12.7,5.376,33.139,33.139,0,0,1-4.465-7.921,32.822,32.822,0,0,0-8.231,2.546Z" transform="translate(-4.472 -18.661)"/>
      <path id="パス_26" data-name="パス 26" class="cls-1" d="M42.744,24.065A32.913,32.913,0,0,1,40.45,36.147a32.822,32.822,0,0,1,8.231,2.526,20.029,20.029,0,0,0,0-29.224,32.822,32.822,0,0,1-8.231,2.526A32.952,32.952,0,0,1,42.744,24.065Z" transform="translate(-14.961 -4.049)"/>
      <path id="パス_27" data-name="パス 27" class="cls-1" d="M46.236,6.5a19.952,19.952,0,0,0-12.7-5.4A33.139,33.139,0,0,1,38,9.021,32.822,32.822,0,0,0,46.236,6.5Z" transform="translate(-12.516 -1.094)"/>
      <path id="パス_28" data-name="パス 28" class="cls-1" d="M33.54,58.661a19.952,19.952,0,0,0,12.7-5.4A32.822,32.822,0,0,0,38,50.74,33.139,33.139,0,0,1,33.54,58.661Z" transform="translate(-12.516 -18.661)"/>
      <path id="パス_29" data-name="パス 29" class="cls-1" d="M22.294,37.531a33.178,33.178,0,0,1,10.919,0,32.913,32.913,0,0,0,2.294-12.082A32.952,32.952,0,0,0,33.213,13.36a33.055,33.055,0,0,1-5.46.459,33.055,33.055,0,0,1-5.46-.459A32.984,32.984,0,0,0,22.294,37.531Z" transform="translate(-7.724 -5.433)"/>
      <path id="パス_30" data-name="パス 30" class="cls-1" d="M28.015,1.1A33.139,33.139,0,0,0,23.55,9.018a33.055,33.055,0,0,0,5.46.459,33.055,33.055,0,0,0,5.46-.459A33.139,33.139,0,0,0,30,1.1h-1C28.661,1.1,28.364,1.084,28.015,1.1Z" transform="translate(-8.98 -1.091)"/>
      <path id="パス_31" data-name="パス 31" class="cls-1" d="M29.01,50.07a33.054,33.054,0,0,0-5.46.452,33.139,33.139,0,0,0,4.465,7.9H30A33.139,33.139,0,0,0,34.469,50.5a33.055,33.055,0,0,0-5.46-.433Z" transform="translate(-8.98 -18.424)"/>
      <line id="線_3" data-name="線 3" class="cls-1" x2="40.059" transform="translate(0 20.016)"/>
    </g>
  </g>
</svg>
